<svg xmlns="http://www.w3.org/2000/svg" width="26" height="23">
    <path fill="#FFF" fill-rule="evenodd" d="M13.332 22.875c-.095.083-.214.125-.332.125-.119 0-.237-.042-.333-.125C5.467 16.619 0 12.256 0 7.073 0 5.19.641 3.429 1.805 2.118 3.017.752 4.698 0 6.538 0c2.012 0 3.849.782 5.31 2.262.509.515.889 1.029 1.152 1.436.263-.407.643-.921 1.151-1.436C15.613.782 17.449 0 19.462 0 23.314 0 26 3.231 26 7.073c0 5.19-5.485 9.56-12.668 15.802zm6.13-21.857c-1.748 0-3.284.651-4.564 1.935-.975.978-1.43 1.977-1.435 1.987-.081.182-.263.3-.462.3H13c-.2 0-.381-.118-.463-.3-.005-.01-.46-1.008-1.435-1.987-1.28-1.284-2.816-1.935-4.564-1.935-3.148 0-5.522 2.603-5.522 6.055 0 4.735 5.544 9.156 11.984 14.744 6.783-5.886 11.984-10.113 11.984-14.744 0-3.452-2.374-6.055-5.522-6.055zM4.451 12.624c-1.651-2.072-2.42-3.836-2.42-5.551 0-.923.22-1.833.636-2.628.13-.249.437-.345.686-.214.248.13.344.438.214.687-.336.641-.52 1.406-.52 2.155 0 1.472.698 3.034 2.198 4.915.175.22.139.541-.08.716-.22.177-.54.139-.714-.08zM4.443 3.65c-.28 0-.507-.229-.507-.51s.227-.509.507-.509c.281 0 .508.228.508.509s-.227.51-.508.51z"/>
</svg>
