<svg xmlns="http://www.w3.org/2000/svg" width="26" height="23">
    <path fill="#FFF" fill-rule="evenodd" d="M24.641 11.681l-9.277 2.118v1.938c0 .363-.237.605-.591.605h-3.546c-.354 0-.591-.242-.591-.605v-1.938l-9.277-2.118C.591 11.5 0 10.773 0 9.926V6.052c0-1.029.768-1.816 1.773-1.816h22.454c1.005 0 1.773.787 1.773 1.816v3.874c0 .847-.591 1.574-1.359 1.755zm-12.823 3.45h2.364v-2.42h-2.364v2.42zm13-9.079c0-.363-.236-.605-.591-.605H1.773c-.355 0-.591.242-.591.605v3.874c0 .303.177.545.472.606l8.982 2.057v-.484c0-.363.237-.605.591-.605h3.546c.354 0 .591.242.591.605v.484l8.981-2.058c.296-.06.473-.302.473-.605V6.052zm-7.682-3.026c-.354 0-.591-.242-.591-.605v-.605c0-.364-.236-.606-.591-.606h-5.909c-.354 0-.591.242-.591.606v.605c0 .363-.236.605-.59.605-.355 0-.591-.242-.591-.605v-.605C8.273.787 9.041 0 10.045 0h5.909c1.005 0 1.773.787 1.773 1.816v.605c0 .363-.236.605-.591.605zM1.182 12.711c.354 0 .591.241.591.605v7.868c0 .363.236.605.591.605h21.272c.355 0 .591-.242.591-.605v-7.868c0-.364.237-.605.591-.605.355 0 .591.241.591.605v7.868c0 1.029-.768 1.816-1.773 1.816H2.364c-1.005 0-1.773-.787-1.773-1.816v-7.868c0-.364.236-.605.591-.605z"/>
</svg>
