<svg 
 xmlns="http://www.w3.org/2000/svg"
 xmlns:xlink="http://www.w3.org/1999/xlink"
 width="26px" height="24px">
<path fill-rule="evenodd"  fill="rgb(255, 255, 255)"
 d="M17.977,5.603 C17.959,5.631 17.938,5.656 17.914,5.679 C17.891,5.701 17.865,5.723 17.837,5.741 C17.809,5.758 17.780,5.774 17.750,5.786 C17.719,5.798 17.687,5.808 17.655,5.814 C17.622,5.821 17.589,5.824 17.555,5.824 C17.522,5.824 17.489,5.821 17.457,5.814 C17.424,5.808 17.392,5.798 17.362,5.786 C17.331,5.774 17.301,5.758 17.274,5.741 C17.246,5.723 17.220,5.701 17.197,5.679 C17.173,5.656 17.152,5.631 17.134,5.603 C17.116,5.577 17.100,5.548 17.087,5.518 C17.075,5.488 17.065,5.456 17.058,5.425 C17.052,5.393 17.048,5.361 17.048,5.328 C17.048,5.296 17.052,5.263 17.058,5.231 C17.065,5.199 17.075,5.168 17.087,5.138 C17.100,5.108 17.116,5.079 17.134,5.052 C17.152,5.025 17.173,5.000 17.197,4.977 C17.220,4.955 17.246,4.934 17.274,4.916 C17.301,4.898 17.331,4.883 17.362,4.870 C17.392,4.858 17.424,4.848 17.457,4.842 C17.522,4.829 17.589,4.829 17.655,4.842 C17.687,4.848 17.719,4.858 17.750,4.870 C17.780,4.883 17.809,4.898 17.837,4.916 C17.865,4.934 17.891,4.955 17.914,4.977 C17.938,5.000 17.959,5.025 17.977,5.052 C17.996,5.079 18.011,5.108 18.024,5.138 C18.037,5.168 18.046,5.199 18.053,5.231 C18.059,5.263 18.063,5.296 18.063,5.328 C18.063,5.361 18.059,5.393 18.053,5.425 C18.046,5.456 18.037,5.488 18.024,5.518 C18.011,5.548 17.996,5.577 17.977,5.603 ZM12.984,17.063 C10.130,17.063 7.809,14.792 7.809,12.000 C7.809,9.208 10.130,6.937 12.984,6.937 C15.837,6.937 18.158,9.208 18.158,12.000 C18.158,14.792 15.837,17.063 12.984,17.063 ZM12.984,7.929 C10.690,7.929 8.824,9.755 8.824,12.000 C8.824,14.244 10.690,16.070 12.984,16.070 C15.278,16.070 17.144,14.244 17.144,12.000 C17.144,9.755 15.278,7.929 12.984,7.929 ZM12.984,15.063 C11.257,15.063 9.853,13.689 9.853,12.000 C9.853,10.311 11.257,8.937 12.984,8.937 C14.710,8.937 16.114,10.311 16.114,12.000 C16.114,13.689 14.710,15.063 12.984,15.063 ZM12.984,9.929 C11.817,9.929 10.867,10.858 10.867,12.000 C10.867,13.142 11.817,14.070 12.984,14.070 C14.150,14.070 15.100,13.142 15.100,12.000 C15.100,10.858 14.150,9.929 12.984,9.929 ZM18.666,6.183 C18.872,5.997 19.193,6.010 19.383,6.211 C20.879,7.793 21.703,9.849 21.703,12.000 C21.703,13.965 21.001,15.884 19.726,17.404 C18.544,18.814 16.923,19.822 15.133,20.269 C14.951,21.268 14.056,22.029 12.984,22.029 C11.911,22.029 11.016,21.268 10.834,20.269 C9.045,19.822 7.425,18.815 6.243,17.406 C4.967,15.886 4.264,13.966 4.264,12.000 C4.264,10.041 4.962,8.127 6.230,6.609 C7.413,5.193 9.038,4.179 10.834,3.731 C11.016,2.731 11.911,1.970 12.984,1.970 C14.187,1.970 15.167,2.929 15.167,4.106 C15.167,5.285 14.187,6.243 12.984,6.243 C12.005,6.243 11.175,5.611 10.899,4.741 C7.616,5.647 5.279,8.628 5.279,12.000 C5.279,15.377 7.614,18.353 10.899,19.259 C11.176,18.389 12.005,17.757 12.984,17.757 C13.962,17.757 14.792,18.389 15.069,19.259 C18.353,18.353 20.689,15.376 20.689,12.000 C20.689,10.099 19.960,8.283 18.638,6.885 C18.448,6.684 18.461,6.369 18.666,6.183 ZM12.984,5.250 C13.628,5.250 14.153,4.737 14.153,4.106 C14.153,3.476 13.628,2.963 12.984,2.963 C12.339,2.963 11.815,3.476 11.815,4.106 C11.815,4.737 12.339,5.250 12.984,5.250 ZM12.984,18.749 C12.339,18.749 11.815,19.262 11.815,19.893 C11.815,20.524 12.339,21.037 12.984,21.037 C13.628,21.037 14.153,20.524 14.153,19.893 C14.153,19.262 13.628,18.749 12.984,18.749 ZM25.789,17.390 C25.434,18.197 24.627,18.681 23.781,18.681 C23.593,18.681 23.403,18.658 23.216,18.609 C22.153,20.178 20.719,21.494 19.048,22.428 C17.207,23.456 15.110,24.000 12.983,24.000 C7.135,24.000 2.074,19.926 0.948,14.314 C0.895,14.045 1.074,13.784 1.348,13.731 C1.624,13.678 1.890,13.854 1.944,14.123 C2.976,19.271 7.619,23.007 12.984,23.007 C16.762,23.007 20.220,21.193 22.322,18.132 C21.647,17.536 21.399,16.563 21.778,15.701 C22.157,14.838 23.052,14.344 23.960,14.416 C24.141,13.626 24.233,12.815 24.233,12.000 C24.233,5.930 19.187,0.992 12.984,0.992 C9.228,0.992 5.748,2.812 3.646,5.868 C4.320,6.464 4.568,7.437 4.189,8.298 C3.834,9.106 3.027,9.591 2.180,9.591 C1.893,9.591 1.601,9.535 1.321,9.417 C0.215,8.951 -0.298,7.692 0.178,6.610 C0.612,5.623 1.720,5.119 2.751,5.391 C5.036,2.015 8.857,-0.000 12.984,-0.000 C19.746,-0.000 25.248,5.383 25.248,12.000 C25.248,12.921 25.140,13.836 24.928,14.726 C25.836,15.272 26.223,16.404 25.789,17.390 ZM2.645,6.404 C2.495,6.340 2.339,6.311 2.185,6.311 C1.732,6.311 1.300,6.570 1.110,7.002 C0.855,7.582 1.129,8.256 1.722,8.505 C2.314,8.754 3.003,8.486 3.257,7.906 C3.512,7.327 3.238,6.653 2.645,6.404 ZM24.246,15.494 C23.654,15.245 22.965,15.514 22.710,16.093 C22.455,16.673 22.730,17.347 23.322,17.596 C23.914,17.846 24.603,17.577 24.858,16.997 C25.112,16.418 24.838,15.744 24.246,15.494 ZM0.764,12.169 C0.777,12.139 0.793,12.110 0.811,12.083 C0.829,12.056 0.850,12.030 0.874,12.008 C0.897,11.985 0.923,11.964 0.951,11.945 C0.979,11.928 1.008,11.912 1.038,11.900 C1.069,11.888 1.101,11.878 1.133,11.872 C1.199,11.859 1.266,11.859 1.332,11.872 C1.364,11.878 1.396,11.888 1.426,11.900 C1.457,11.912 1.486,11.928 1.514,11.945 C1.542,11.964 1.568,11.985 1.591,12.008 C1.615,12.030 1.636,12.056 1.654,12.083 C1.672,12.110 1.688,12.139 1.701,12.169 C1.714,12.198 1.723,12.230 1.730,12.262 C1.736,12.293 1.740,12.326 1.740,12.359 C1.740,12.391 1.736,12.424 1.730,12.455 C1.723,12.487 1.714,12.518 1.701,12.548 C1.688,12.578 1.672,12.607 1.654,12.634 C1.636,12.661 1.615,12.687 1.591,12.709 C1.568,12.732 1.542,12.753 1.514,12.771 C1.486,12.789 1.457,12.804 1.426,12.817 C1.396,12.829 1.364,12.838 1.332,12.845 C1.299,12.851 1.266,12.855 1.233,12.855 C1.199,12.855 1.166,12.851 1.133,12.845 C1.101,12.838 1.069,12.829 1.038,12.817 C1.008,12.804 0.979,12.789 0.951,12.771 C0.923,12.753 0.897,12.732 0.874,12.709 C0.850,12.687 0.829,12.661 0.811,12.634 C0.793,12.607 0.777,12.578 0.764,12.548 C0.751,12.518 0.742,12.487 0.735,12.455 C0.729,12.424 0.726,12.391 0.726,12.359 C0.726,12.326 0.729,12.293 0.735,12.262 C0.742,12.230 0.751,12.199 0.764,12.169 Z"/>
</svg>