<svg 
 xmlns="http://www.w3.org/2000/svg"
 xmlns:xlink="http://www.w3.org/1999/xlink"
 width="19px" height="23px">
<path fill-rule="evenodd"  fill="rgb(255, 255, 255)"
 d="M13.723,10.012 C13.021,11.166 12.225,12.005 11.351,12.496 C11.417,12.753 11.432,12.986 11.432,12.991 C11.432,12.999 11.390,13.631 11.110,13.935 L11.110,14.837 C11.914,15.062 12.450,15.432 12.636,15.890 L13.739,15.890 C13.938,15.890 14.099,16.051 14.099,16.250 L14.099,20.953 L14.363,20.953 C14.562,20.953 14.723,21.114 14.723,21.313 L14.723,22.640 C14.723,22.839 14.562,23.000 14.363,23.000 L4.637,23.000 C4.438,23.000 4.276,22.839 4.276,22.640 L4.276,21.313 C4.276,21.114 4.438,20.953 4.637,20.953 L4.900,20.953 L4.900,16.250 C4.900,16.051 5.061,15.890 5.260,15.890 L6.364,15.890 C6.549,15.432 7.086,15.062 7.890,14.837 L7.890,13.929 C7.608,13.622 7.567,12.999 7.567,12.991 C7.567,12.986 7.582,12.752 7.648,12.495 C6.774,12.004 5.978,11.165 5.277,10.012 C3.417,9.406 -0.000,6.960 -0.000,3.697 C-0.000,2.103 1.372,0.826 2.984,0.951 C2.980,0.840 2.974,0.721 2.973,0.612 C2.972,0.449 3.036,0.296 3.151,0.180 C3.266,0.064 3.420,0.000 3.582,0.000 L15.417,0.000 C15.581,0.000 15.734,0.064 15.850,0.180 C15.965,0.297 16.027,0.451 16.025,0.614 C16.024,0.727 16.018,0.839 16.015,0.951 C16.083,0.946 16.154,0.926 16.221,0.926 C17.753,0.926 19.000,2.169 19.000,3.697 C19.000,6.959 15.584,9.405 13.723,10.012 ZM4.997,21.672 L4.997,22.281 L14.003,22.281 L14.003,21.672 L13.739,21.672 L5.260,21.672 L4.997,21.672 ZM5.621,20.953 L13.379,20.953 L13.379,16.609 L5.621,16.609 L5.621,20.953 ZM10.389,14.673 L10.389,14.097 L8.611,14.097 L8.611,14.673 C9.188,14.593 9.812,14.593 10.389,14.673 ZM8.382,13.377 L10.618,13.377 C10.665,13.260 10.711,13.064 10.712,12.991 C10.711,12.904 10.659,12.664 10.607,12.525 L8.393,12.525 C8.341,12.664 8.289,12.904 8.288,12.991 C8.289,13.064 8.335,13.260 8.382,13.377 ZM11.757,15.890 C11.534,15.723 11.169,15.559 10.673,15.452 C10.445,15.403 10.195,15.397 9.951,15.378 C9.799,15.366 9.654,15.332 9.500,15.332 C9.099,15.332 8.698,15.372 8.326,15.452 C7.831,15.559 7.466,15.723 7.243,15.890 L11.757,15.890 ZM3.033,2.030 C3.025,1.913 3.020,1.793 3.013,1.674 C1.763,1.521 0.720,2.489 0.720,3.697 C0.720,6.205 3.094,8.162 4.725,8.996 C3.797,7.067 3.211,4.663 3.033,2.030 ZM3.696,0.718 C3.700,0.917 3.708,1.113 3.716,1.310 C3.726,1.558 3.739,1.771 3.752,1.982 C3.926,4.552 4.496,6.892 5.402,8.750 C5.532,9.018 5.673,9.280 5.820,9.529 C6.435,10.570 7.149,11.354 7.892,11.806 C8.008,11.806 8.251,11.806 8.250,11.806 L11.107,11.806 C11.851,11.354 12.565,10.570 13.180,9.529 C13.326,9.281 13.467,9.018 13.598,8.750 C14.504,6.892 15.074,4.552 15.247,1.982 C15.261,1.770 15.273,1.558 15.282,1.342 C15.291,1.135 15.299,0.928 15.303,0.718 L3.696,0.718 ZM15.986,1.674 C15.979,1.793 15.974,1.913 15.966,2.031 C15.789,4.662 15.202,7.067 14.274,8.997 C15.905,8.162 18.279,6.205 18.279,3.697 C18.279,2.490 17.236,1.522 15.986,1.674 ZM13.026,8.104 C12.910,8.343 12.784,8.579 12.650,8.805 C12.172,9.614 11.624,10.252 11.064,10.650 L10.646,10.064 C11.124,9.725 11.602,9.164 12.029,8.441 C12.153,8.230 12.270,8.011 12.378,7.790 C13.151,6.206 13.659,4.107 13.809,1.881 C13.816,1.775 13.823,1.669 13.828,1.556 L14.548,1.593 C14.542,1.710 14.535,1.818 14.528,1.928 C14.371,4.245 13.838,6.439 13.026,8.104 ZM12.298,20.234 L6.702,20.234 C6.503,20.234 6.341,20.074 6.341,19.875 L6.341,17.687 C6.341,17.488 6.503,17.327 6.702,17.327 L12.298,17.327 C12.497,17.327 12.659,17.488 12.659,17.687 L12.659,19.875 C12.659,20.073 12.497,20.234 12.298,20.234 ZM11.938,18.046 L7.062,18.046 L7.062,19.515 L11.938,19.515 L11.938,18.046 Z"/>
</svg>