<svg 
 xmlns="http://www.w3.org/2000/svg"
 xmlns:xlink="http://www.w3.org/1999/xlink"
 width="39px" height="38px">
<path fill-rule="evenodd"  opacity="0.078" fill="rgb(0, 0, 0)"
 d="M9.050,17.531 L9.050,20.739 L16.893,20.739 L16.893,37.999 L-0.000,37.999 L-0.000,20.739 L0.000,20.739 L0.000,17.531 C0.000,11.018 1.834,6.181 5.452,3.155 C7.955,1.062 11.122,0.001 14.867,0.001 L14.867,9.247 C12.835,9.247 9.050,9.247 9.050,17.531 ZM36.974,9.247 L36.974,0.001 C33.229,0.001 30.062,1.062 27.559,3.155 C23.941,6.181 22.107,11.018 22.107,17.531 L22.107,20.739 L22.107,20.739 L22.107,37.999 L39.000,37.999 L39.000,20.739 L31.157,20.739 L31.157,17.531 C31.157,9.247 34.941,9.247 36.974,9.247 Z"/>
</svg>